# This file uses centimeters as units for non-parametric coordinates.

mtllib Fire_Fir_1.mtl
g default
v -156.243744 223.528442 -39.306900
v -0.902197 223.528442 168.771622
v -118.215141 777.358887 -67.697266
v 37.126411 777.358887 140.381256
v 45.441322 206.998611 -165.721832
v -162.637192 206.998611 -10.380284
v 50.953678 762.782166 -158.338089
v -157.124832 762.782166 -2.996541
v -47.898643 206.998611 150.571838
v 167.141327 206.998611 -9.966779
v -53.410995 762.782166 143.188110
v 161.628983 762.782166 -17.350517
v 170.073868 208.592819 41.129009
v 14.732309 208.592819 -166.949524
v 141.803055 763.332092 62.234650
v -13.538496 763.332092 -145.843872
v -130.136322 233.728577 100.216705
v 130.136322 233.728577 100.216705
v -130.136322 788.847778 52.649048
v 130.136322 788.847778 52.649048
v -110.736435 217.160278 -137.575729
v -110.736435 217.160278 122.696907
v -101.500565 774.237183 -137.575729
v -101.500565 774.237183 122.696907
v 87.338341 217.160278 127.050728
v 87.338341 217.160278 -141.929550
v 78.102470 774.237183 127.050728
v 78.102470 774.237183 -141.929550
v 130.136322 218.758209 -113.646744
v -130.136322 218.758209 -113.646744
v 130.136322 774.788330 -78.284531
v -130.136322 774.788330 -78.284531
vt 0.000000 0.000000
vt 1.000000 0.000000
vt 0.000000 1.000000
vt 1.000000 1.000000
vt 0.000000 0.000000
vt 1.000000 0.000000
vt 1.000000 1.000000
vt 0.000000 1.000000
vt 0.000000 0.000000
vt 1.000000 0.000000
vt 1.000000 1.000000
vt 0.000000 1.000000
vt 0.000000 0.000000
vt 1.000000 0.000000
vt 1.000000 1.000000
vt 0.000000 1.000000
vt 0.000000 0.000000
vt 1.000000 0.000000
vt 1.000000 1.000000
vt 0.000000 1.000000
vt 0.000000 0.000000
vt 1.000000 0.000000
vt 1.000000 1.000000
vt 0.000000 1.000000
vt 0.000000 0.000000
vt 1.000000 0.000000
vt 1.000000 1.000000
vt 0.000000 1.000000
vt 0.000000 0.000000
vt 1.000000 0.000000
vt 1.000000 1.000000
vt 0.000000 1.000000
vn -0.798398 0.085376 0.596046
vn -0.798398 0.085376 0.596046
vn -0.798398 0.085376 0.596046
vn -0.798398 0.085376 0.596046
vn -0.598148 0.016577 -0.801214
vn -0.598148 0.016577 -0.801214
vn -0.598148 0.016577 -0.801214
vn -0.598148 0.016577 -0.801214
vn 0.598148 0.016577 0.801214
vn 0.598148 0.016577 0.801214
vn 0.598148 0.016577 0.801214
vn 0.598148 0.016577 0.801214
vn 0.799708 0.063469 -0.597024
vn 0.799708 0.063469 -0.597024
vn 0.799708 0.063469 -0.597024
vn 0.799708 0.063469 -0.597024
vn 0.000000 0.085376 0.996349
vn 0.000000 0.085376 0.996349
vn 0.000000 0.085376 0.996349
vn 0.000000 0.085376 0.996349
vn -0.999863 0.016577 0.000000
vn -0.999863 0.016577 0.000000
vn -0.999863 0.016577 0.000000
vn -0.999863 0.016577 0.000000
vn 0.999863 0.016577 0.000000
vn 0.999863 0.016577 0.000000
vn 0.999863 0.016577 0.000000
vn 0.999863 0.016577 0.000000
vn 0.000000 0.063469 -0.997984
vn 0.000000 0.063469 -0.997984
vn 0.000000 0.063469 -0.997984
vn 0.000000 0.063469 -0.997984
s off
g pPlane7
usemtl initialShadingGroup
f 1/1/1 2/2/2 4/4/3 3/3/4
f 5/5/5 6/6/6 8/7/7 7/8/8
f 9/9/9 10/10/10 12/11/11 11/12/12
f 13/13/13 14/14/14 16/15/15 15/16/16
f 17/17/17 18/18/18 20/19/19 19/20/20
f 21/21/21 22/22/22 24/23/23 23/24/24
f 25/25/25 26/26/26 28/27/27 27/28/28
f 29/29/29 30/30/30 32/31/31 31/32/32
